Coordinates
version=1
nRows=21
nColumns=12
inDegrees=yes

Units are S.I. units (second, meters, Newtons, ...)
Angles are in degrees

endheader
time	SC_y	SC_z	SC_x	AC_y	AC_z	AC_x	GH_y	GH_z	GH_yy	EL_x	PS_y
       0.0              -11.32          24.63          28.11          42.34          9.642           13.0         -35.89        0.01611          63.99           63.4          105.6
   0.03916              -11.33          24.63          28.11          42.34          9.638           13.0         -35.88        0.02639          63.96           63.4          105.6
   0.07832              -11.33          24.63          28.12          42.34          9.634           13.0         -35.88        0.03732          63.92          63.41          105.5
    0.1175              -11.34          24.63          28.12          42.35           9.63           13.0         -35.87        0.04894          63.88          63.41          105.5
    0.1566              -11.34          24.62          28.13          42.35          9.626           13.0         -35.86        0.06131          63.84          63.42          105.5
    0.1958              -11.35          24.62          28.13          42.35          9.621           13.0         -35.86         0.0745          63.79          63.42          105.5
     0.235              -11.35          24.61          28.14          42.36          9.616           13.0         -35.85        0.08858          63.75          63.43          105.5
    0.2741              -11.36          24.61          28.14          42.36          9.611           13.0         -35.84         0.1036           63.7          63.44          105.5
    0.3133              -11.37          24.61          28.15          42.36          9.605          13.01         -35.83         0.1198          63.64          63.45          105.4
    0.3524              -11.37           24.6          28.16          42.37          9.599          13.01         -35.83         0.1371          63.58          63.45          105.4
    0.3916              -11.38           24.6          28.17          42.37          9.593          13.01         -35.82         0.1556          63.52          63.46          105.4
    0.4308              -11.39          24.59          28.17          42.38          9.586          13.01         -35.81         0.1756          63.45          63.47          105.4
    0.4699               -11.4          24.59          28.18          42.38          9.578          13.01         -35.79         0.1972          63.38          63.48          105.4
    0.5091              -11.41          24.58          28.19          42.39           9.57          13.01         -35.78         0.2205           63.3          63.49          105.3
    0.5482              -11.42          24.57           28.2          42.39          9.561          13.01         -35.77         0.2457          63.21          63.51          105.3
    0.5874              -11.43          24.57          28.21           42.4          9.551          13.01         -35.76          0.273          63.12          63.52          105.3
    0.6266              -11.44          24.56          28.22          42.41          9.541          13.01         -35.74         0.3027          63.02          63.53          105.3
    0.6657              -11.46          24.55          28.24          42.42           9.53          13.01         -35.72         0.3351          62.91          63.55          105.2
    0.7049              -11.47          24.54          28.25          42.43          9.517          13.02         -35.71         0.3704          62.79          63.57          105.2
     0.744              -11.49          24.53          28.27          42.43          9.504          13.02         -35.69         0.4091          62.66          63.58          105.1
    0.7832              -11.51          24.52          28.28          42.45          9.489          13.02         -35.67         0.4515          62.52           63.6          105.1
